<?xml version="1.0" encoding="iso-8859-1"?>
<!-- Uploaded to: SVG Repo, www.svgrepo.com, Generator: SVG Repo Mixer Tools -->
<svg fill="#000000" height="800px" width="800px" version="1.1" id="Layer_1" xmlns="http://www.w3.org/2000/svg" xmlns:xlink="http://www.w3.org/1999/xlink" 
	 viewBox="0 0 511.998 511.998" xml:space="preserve">
<g>
	<g>
		<path d="M160.877,211.668c-1.232,0.017-2.48,0.192-3.679,0.606c-0.663,0.228-1.297,0.517-1.896,0.86
			c-0.948,0.54-1.795,1.211-2.527,1.98c-1.905,1.996-3.075,4.701-3.075,7.677c0,5.734,4.338,10.454,9.912,11.056
			c0.399,0.044,0.802,0.067,1.208,0.067c0.542,0,1.09-0.04,1.638-0.121c5.369-0.789,9.492-5.414,9.492-11.003
			C171.949,216.663,166.997,211.695,160.877,211.668z"/>
	</g>
</g>
<g>
	<g>
		<path d="M74.554,285.019c-20.404,0-35.79,23.574-35.79,54.835s15.386,54.837,35.79,54.837s35.79-23.574,35.79-54.837
			C110.346,308.593,94.958,285.019,74.554,285.019z M74.554,372.448c-4.775,0-13.548-12.375-13.548-32.594
			c0-20.218,8.771-32.593,13.548-32.593s13.548,12.375,13.548,32.593C88.103,360.073,79.331,372.448,74.554,372.448z"/>
	</g>
</g>
<g>
	<g>
		<path d="M378.305,265.312c-1.219-4.326-2.589-8.597-4.107-12.806c-0.758-2.104-1.554-4.194-2.385-6.266
			c-0.028-0.069-0.059-0.136-0.087-0.205c0.396-0.824,0.797-1.65,1.182-2.472c23.002-49.041,24.509-87.213,4.244-107.479
			c-20.638-20.638-59.44-18.743-109.573,5.234c-0.799-0.326-1.586-0.672-2.391-0.988c-0.008-0.003-0.014-0.004-0.022-0.008
			c-1.333-0.523-2.671-1.03-4.014-1.519c-20.252-7.406-41.519-11.246-63.211-11.419c-0.012,0-0.024,0-0.036,0
			c-0.016,0-0.031-0.001-0.047-0.001c-0.004,0-0.009,0.001-0.013,0.001c-0.519-0.008-1.045-0.009-1.564-0.009
			c-28.605,0-56.097,6.232-81.713,18.524c-11.396,5.468-22.287,12.119-32.365,19.765c-6.807,5.158-13.215,10.718-19.197,16.644
			c-1.292,1.28-2.558,2.583-3.81,3.898c-1.164,1.222-2.315,2.453-3.445,3.703c-0.934,1.035-1.857,2.08-2.768,3.134
			c-16.368,18.953-28.804,40.988-36.617,65.146c-6.069,18.752-9.146,38.348-9.146,58.246c0,6.203,0.305,12.389,0.909,18.531
			c0.439,4.466,1.05,8.907,1.802,13.321c2.288,13.419,6.012,26.549,11.107,39.143c-24.352,50.536-26.388,89.63-5.626,110.391
			c9.461,9.461,22.82,14.176,39.37,14.175c18.902-0.001,41.965-6.153,68.114-18.417c1.068-0.5,2.142-1.02,3.216-1.539
			c2.559,1.023,5.144,1.994,7.755,2.906c20.018,6.999,41.017,10.547,62.415,10.547c0.444,0,0.881-0.002,1.323-0.009
			c0.001,0,0.001,0,0.002,0c0.027,0,0.055,0,0.082,0c0.018,0,0.037-0.001,0.055-0.001c0.002,0,0.004,0,0.007,0
			c0.092-0.001,0.183-0.004,0.276-0.006c1.42-0.013,2.838-0.038,4.254-0.081c0.013-0.001,0.027-0.001,0.041-0.002
			c1.494-0.047,2.984-0.11,4.472-0.191c0.032-0.001,0.065-0.004,0.097-0.007c2.971-0.162,5.93-0.394,8.877-0.695
			c0.061-0.006,0.121-0.014,0.182-0.021c1.428-0.147,2.853-0.308,4.275-0.487c0.081-0.01,0.163-0.023,0.245-0.033
			c1.4-0.178,2.797-0.369,4.19-0.579c0.206-0.031,0.409-0.069,0.615-0.1c1.268-0.196,2.534-0.396,3.798-0.617
			c0.433-0.076,0.862-0.163,1.292-0.242c1.034-0.188,2.07-0.375,3.101-0.579c0.668-0.133,1.333-0.284,2.001-0.424
			c0.788-0.167,1.579-0.326,2.365-0.502c1.078-0.242,2.15-0.503,3.223-0.764c0.374-0.091,0.748-0.172,1.121-0.266
			c8.675-2.165,17.199-4.954,25.537-8.362c10.418-4.254,20.502-9.483,30.035-15.556c1.105-0.705,2.209-1.414,3.299-2.141
			c44.895-29.934,74.945-77.604,82.442-130.794c1.23-8.777,1.855-17.726,1.855-26.601c0-3.622-0.104-7.286-0.308-10.888
			C384.25,291.766,381.961,278.291,378.305,265.312z M265.377,164.586c0.539,0.247,1.082,0.487,1.619,0.74
			c0.703,0.329,1.406,0.661,2.103,0.999c1.047,0.508,2.082,1.032,3.115,1.56c0.669,0.344,1.341,0.682,2.005,1.034
			c1.081,0.573,2.148,1.163,3.213,1.758c0.594,0.331,1.193,0.654,1.783,0.993c1.297,0.745,2.577,1.514,3.85,2.292
			c0.339,0.207,0.685,0.403,1.022,0.613c1.595,0.99,3.168,2.006,4.725,3.046c0.483,0.323,0.954,0.661,1.434,0.989
			c1.072,0.732,2.141,1.468,3.194,2.224c0.602,0.434,1.193,0.879,1.788,1.32c0.913,0.674,1.824,1.351,2.721,2.044
			c0.628,0.485,1.249,0.979,1.869,1.471c0.849,0.673,1.693,1.352,2.528,2.042c0.624,0.516,1.242,1.038,1.858,1.56
			c0.816,0.695,1.625,1.398,2.427,2.107c0.604,0.534,1.207,1.07,1.802,1.612c0.805,0.733,1.598,1.478,2.388,2.225
			c0.566,0.536,1.135,1.07,1.695,1.614c0.827,0.807,1.639,1.628,2.45,2.451c0.499,0.504,1.003,1,1.492,1.51
			c1.012,1.053,2.004,2.126,2.987,3.205c0.267,0.295,0.544,0.579,0.81,0.874c1.228,1.367,2.431,2.756,3.613,4.16
			c0.408,0.486,0.802,0.984,1.204,1.474c0.777,0.946,1.552,1.892,2.308,2.854c0.465,0.591,0.916,1.192,1.372,1.789
			c0.673,0.881,1.343,1.763,1.998,2.657c0.468,0.637,0.925,1.282,1.385,1.926c0.623,0.875,1.24,1.754,1.846,2.641
			c0.452,0.662,0.899,1.326,1.34,1.994c0.593,0.895,1.176,1.796,1.752,2.702c0.425,0.669,0.85,1.338,1.264,2.014
			c0.578,0.939,1.141,1.885,1.7,2.836c0.385,0.654,0.774,1.305,1.15,1.964c0.593,1.039,1.164,2.087,1.735,3.138
			c0.317,0.583,0.643,1.161,0.952,1.748c0.765,1.451,1.506,2.915,2.229,4.387c0.096,0.197,0.2,0.389,0.295,0.585
			c0.268,0.55,0.513,1.113,0.774,1.667c-4.066,7.816-8.685,15.928-13.856,24.276c-5.786-10.924-8.574-24.01-7.921-37.67l0.012-0.177
			c0.002-0.041,0.004-0.081,0.007-0.122c0.974-18.757-9.898-36.144-27.059-43.267c-29.55-12.251-33.209-20.366-33.494-21.144
			C264.921,166.397,265.093,165.489,265.377,164.586z M201.645,149.707c1.22,0.038,2.439,0.088,3.656,0.152
			c0.216,0.012,0.43,0.028,0.645,0.041c1.015,0.058,2.031,0.119,3.044,0.196c0.426,0.032,0.851,0.072,1.277,0.108
			c0.8,0.067,1.599,0.132,2.397,0.209c0.497,0.048,0.993,0.106,1.49,0.158c0.723,0.077,1.446,0.153,2.168,0.239
			c0.529,0.065,1.058,0.135,1.586,0.204c0.687,0.088,1.375,0.177,2.06,0.275c0.546,0.077,1.091,0.161,1.636,0.244
			c0.665,0.101,1.33,0.205,1.993,0.313c0.557,0.092,1.113,0.189,1.669,0.286c0.648,0.115,1.297,0.23,1.944,0.35
			c0.563,0.106,1.124,0.215,1.685,0.326c0.639,0.127,1.278,0.257,1.916,0.391c0.563,0.118,1.125,0.24,1.686,0.364
			c0.635,0.141,1.269,0.287,1.902,0.435c0.558,0.13,1.118,0.262,1.675,0.398c0.635,0.157,1.269,0.317,1.903,0.482
			c0.553,0.142,1.105,0.285,1.657,0.433c0.635,0.17,1.269,0.348,1.903,0.527c0.545,0.155,1.09,0.305,1.633,0.465
			c0.468,0.137,0.934,0.281,1.4,0.423c-1.113,3.133-1.769,6.371-1.93,9.662c-0.758,15.407,14.24,28.949,47.196,42.612
			c8.468,3.514,13.836,12.156,13.372,21.514l-0.012,0.191c-0.003,0.052-0.006,0.106-0.009,0.158
			c-1.061,21.752,4.764,42.639,16.405,58.813c0.1,0.139,0.207,0.268,0.308,0.406c-6.103,8.769-12.758,17.726-19.967,26.815
			c-14.131-15.777-23.108-39.128-23.108-65.164v-0.305c0.07-23.651-14.659-44.845-36.657-52.739
			c-40.149-14.391-48.941-26.241-48.941-29.591C191.226,161.002,196.386,154.367,201.645,149.707z M41.669,253.688
			c0.242-0.598,0.494-1.192,0.743-1.787c0.514-1.228,1.042-2.45,1.584-3.663c0.272-0.611,0.545-1.22,0.825-1.826
			c0.603-1.307,1.226-2.601,1.862-3.89c0.224-0.453,0.438-0.911,0.666-1.362c0.863-1.71,1.755-3.405,2.675-5.08
			c0.218-0.396,0.448-0.785,0.668-1.181c0.723-1.29,1.459-2.572,2.215-3.842c0.34-0.573,0.69-1.139,1.036-1.707
			c0.682-1.113,1.377-2.219,2.084-3.315c0.359-0.557,0.718-1.115,1.084-1.668c0.821-1.239,1.661-2.464,2.516-3.682
			c0.255-0.361,0.499-0.73,0.757-1.09c1.111-1.555,2.25-3.092,3.415-4.61c0.306-0.397,0.623-0.786,0.932-1.182
			c0.885-1.132,1.782-2.254,2.697-3.363c0.419-0.509,0.845-1.013,1.272-1.517c0.861-1.019,1.735-2.026,2.62-3.025
			c0.42-0.474,0.839-0.95,1.264-1.418c1.089-1.199,2.196-2.382,3.322-3.551c0.219-0.227,0.432-0.461,0.652-0.688
			c1.352-1.389,2.735-2.754,4.138-4.099c0.377-0.36,0.764-0.714,1.144-1.071c1.049-0.986,2.107-1.963,3.184-2.923
			c0.487-0.436,0.979-0.867,1.472-1.298c0.438-0.383,0.889-0.754,1.331-1.133c10.736,13.911,13.285,32.951,11.296,38.317
			c-16.404-0.335-30.706,9.288-43.337,17.768c-5.319,3.571-10.388,6.974-14.468,8.781C41.44,254.285,41.549,253.984,41.669,253.688z
			 M31.14,482.096c-11.361-11.36-10.148-36.37,2.774-68.773c16.33,27.32,39.151,49.927,66.186,65.917
			C67.68,492.16,42.402,493.359,31.14,482.096z M125.426,467.501c-18.962-8.904-36.037-21.293-50.369-36.458
			c8.454,2.572,15.873,3.874,22.395,3.874c7.219-0.001,13.357-1.574,18.636-4.711c16.652-9.899,19.977-31.943,24.186-59.85
			c3.78-25.064,8.484-56.257,23.753-88.83c3.479-7.422,6.148-15.061,7.932-22.706c1.396-5.981-2.321-11.962-8.302-13.358
			c-5.98-1.393-11.962,2.321-13.358,8.303c-1.432,6.137-3.59,12.301-6.411,18.321c-16.64,35.5-21.612,68.466-25.607,94.953
			c-3.2,21.213-5.962,39.533-13.558,44.047c-4.979,2.963-15.125,1.795-29.34-3.369c-8.93-3.243-17.437-6.933-25.335-10.987
			c-0.191-0.348-0.388-0.693-0.577-1.043c-0.4-0.74-0.792-1.485-1.181-2.231c-0.433-0.831-0.861-1.664-1.28-2.502
			c-0.376-0.754-0.745-1.509-1.11-2.269c-0.405-0.843-0.803-1.689-1.193-2.538c-0.351-0.765-0.698-1.533-1.038-2.303
			c-0.377-0.855-0.746-1.713-1.109-2.573c-0.327-0.775-0.648-1.551-0.963-2.331c-0.35-0.869-0.692-1.742-1.028-2.617
			c-0.3-0.782-0.598-1.565-0.886-2.351c-0.324-0.882-0.635-1.767-0.943-2.655c-0.275-0.79-0.547-1.579-0.811-2.373
			c-0.296-0.894-0.578-1.793-0.86-2.692c-0.248-0.794-0.496-1.588-0.732-2.387c-0.268-0.907-0.522-1.82-0.775-2.732
			c-0.221-0.798-0.445-1.597-0.654-2.398c-0.241-0.921-0.465-1.847-0.691-2.773c-0.195-0.801-0.393-1.599-0.575-2.401
			c-0.212-0.936-0.408-1.877-0.605-2.816c-0.168-0.8-0.34-1.598-0.496-2.4c-0.186-0.953-0.35-1.912-0.519-2.868
			c-0.14-0.794-0.287-1.587-0.415-2.383c-0.158-0.979-0.294-1.961-0.434-2.942c-0.112-0.781-0.232-1.559-0.334-2.341
			c-0.13-1.014-0.237-2.032-0.349-3.048c-0.083-0.754-0.177-1.506-0.249-2.262c-0.103-1.069-0.18-2.142-0.262-3.213
			c-0.055-0.71-0.121-1.415-0.167-2.124c-0.077-1.192-0.125-2.388-0.176-3.583c-0.026-0.591-0.065-1.181-0.083-1.772
			c-0.058-1.788-0.088-3.58-0.088-5.372c0-13.081,1.507-26.007,4.484-38.584c1.016,0.132,2.052,0.207,3.106,0.207
			c2.789,0,5.704-0.465,8.707-1.405c7.449-2.332,14.725-7.217,22.428-12.389c10.032-6.737,21.381-14.409,30.939-13.983
			c8.459,0.324,15.553-3.811,19.449-11.404c8.289-16.157-0.127-45.643-12.941-62.482c0.284-0.183,0.558-0.38,0.843-0.562
			c0.286-0.184,0.576-0.361,0.863-0.543c1.565-0.989,3.145-1.953,4.741-2.888c0.221-0.13,0.44-0.264,0.662-0.394
			c1.713-0.994,3.446-1.95,5.191-2.88c0.185-0.099,0.37-0.196,0.556-0.294c9.352,7.002,17.259,15.877,23.077,25.953
			c3.072,5.319,9.875,7.141,15.193,4.069c5.319-3.073,7.141-9.875,4.069-15.193c-5.281-9.146-11.934-17.498-19.641-24.75
			c10.345-3.629,20.984-6.203,31.857-7.709c-2.661,5.735-4.063,11.758-4.063,17.886c0,18.643,20.829,35.171,63.675,50.528
			c13.156,4.721,21.966,17.475,21.923,31.769v0.339c0,32.951,12.11,62.504,31.166,82.362c-4.748,5.547-9.693,11.125-14.833,16.722
			c-13.198-12.996-28.811-19.971-45.339-19.971c-26.589,0-33.333,17.289-43.54,43.46c-7.501,19.234-18.315,46.939-41.501,84.807
			C135.45,462.09,130.407,464.895,125.426,467.501z M185.201,461.112c-0.632,7.336-0.686,14.683-0.196,21.764
			c-0.157-0.01-0.313-0.023-0.469-0.033c-0.96-0.066-1.918-0.138-2.874-0.22c-0.724-0.063-1.447-0.132-2.17-0.205
			c-0.865-0.087-1.728-0.182-2.59-0.282c-0.823-0.095-1.645-0.192-2.464-0.3c-1.12-0.147-2.239-0.302-3.354-0.473
			c-0.584-0.088-1.167-0.181-1.749-0.276c-1.141-0.186-2.279-0.383-3.414-0.591c-0.335-0.062-0.669-0.117-1.003-0.181
			c-1.466-0.279-2.927-0.582-4.384-0.902c-0.389-0.084-0.777-0.172-1.167-0.26c-1.363-0.308-2.724-0.629-4.079-0.973
			c-0.12-0.03-0.24-0.058-0.36-0.088c0.569-0.9,1.122-1.786,1.678-2.675c9.599-5.804,19.324-12.198,29.104-19.132
			C185.517,457.884,185.342,459.491,185.201,461.112z M254.241,467.069c0,0.003,0,0.007,0,0.007
			c-0.173,2.031-0.399,4.058-0.675,6.073c-0.191,0.07-0.383,0.141-0.574,0.21c-1.645,0.595-3.295,1.171-4.956,1.715
			c-0.133,0.043-0.268,0.082-0.401,0.126c-1.547,0.5-3.102,0.972-4.661,1.427c-0.426,0.123-0.853,0.248-1.28,0.368
			c-1.67,0.473-3.345,0.925-5.029,1.345c-0.147,0.037-0.295,0.069-0.443,0.106c-1.566,0.385-3.137,0.741-4.713,1.08
			c-0.437,0.095-0.874,0.188-1.311,0.278c-1.699,0.35-3.402,0.683-5.112,0.981c-0.146,0.024-0.294,0.046-0.439,0.07
			c-1.597,0.274-3.2,0.518-4.805,0.745c-0.438,0.061-0.877,0.122-1.316,0.181c-1.728,0.229-3.461,0.44-5.199,0.616
			c-0.145,0.014-0.289,0.024-0.434,0.039c-1.623,0.16-3.251,0.29-4.882,0.403c-0.237,0.017-0.474,0.031-0.712,0.047
			c-0.534-6.389-0.518-13.116,0.062-19.862c0.842-9.748,2.859-19.195,5.78-27.491c9.466-7.611,18.913-15.675,28.275-24.135
			c2.786,2.573,5.441,6.726,7.621,12.095C253.736,435.068,255.633,450.951,254.241,467.069z M250.962,371.636
			c-4.98,4.981-10.005,9.843-15.058,14.592c-12.981-0.394-25.284,7.696-34.817,22.974c-2.419,3.876-4.595,8.145-6.526,12.708
			c-4.532,3.569-9.063,7.022-13.583,10.362c10.344-20.577,16.773-37.049,21.781-49.888c10.466-26.836,12.386-29.3,22.817-29.3
			c10.847,0,21.118,5.122,29.955,13.938C254.023,368.561,252.5,370.098,250.962,371.636z M284.187,458.224
			c-0.571,0.355-1.143,0.708-1.718,1.055c-0.346,0.209-0.688,0.421-1.035,0.627c-1.102,0.656-2.212,1.301-3.33,1.931
			c-0.186,0.106-0.375,0.206-0.561,0.308c-0.245,0.137-0.492,0.268-0.737,0.404c0.731-17.47-1.754-34.112-7.16-47.428
			c-3.174-7.818-7.223-14.176-11.945-18.929c3.012-2.905,6.01-5.849,8.992-8.83c0.744-0.745,1.48-1.492,2.22-2.24
			c9.581,17.269,15.506,40.049,15.506,64.615C284.418,452.566,284.34,455.406,284.187,458.224z M306.458,441.692
			c-1.232-27.491-8.749-53.219-21.51-73.294c6.211-6.701,12.221-13.453,18.012-20.234c12.032,7.509,25.647,11.748,40.056,11.748
			c4.984,0,9.906-0.504,14.742-1.491C349.395,390.617,331.494,419.657,306.458,441.692z M363.008,321.728
			c-0.017,0.526-0.04,1.051-0.061,1.577c-0.053,1.309-0.122,2.617-0.206,3.924c-0.033,0.52-0.063,1.041-0.101,1.56
			c-0.127,1.733-0.272,3.463-0.453,5.189c-6.191,2.451-12.616,3.69-19.17,3.69c-9.152,0-17.874-2.426-25.809-6.804
			c6.564-8.269,12.786-16.546,18.62-24.786c8.221,5.914,17.464,9.624,27.263,10.871
			C363.086,318.541,363.058,320.134,363.008,321.728z M348.3,287.618c3.161-4.918,6.164-9.807,9.022-14.663
			c0.231,0.856,0.457,1.714,0.676,2.573c0.181,0.72,0.369,1.435,0.542,2.155c0.293,1.223,0.562,2.454,0.826,3.686
			c0.133,0.617,0.277,1.23,0.404,1.849c0.371,1.827,0.716,3.66,1.026,5.504c0.014,0.087,0.028,0.174,0.042,0.26
			c0.281,1.688,0.529,3.384,0.76,5.086C356.906,292.855,352.429,290.673,348.3,287.618z M358.852,220.063
			c-9.395-15.824-21.063-30.244-34.64-42.76c-9.381-8.647-19.671-16.378-30.751-23.034c32.004-12.611,56.71-13.708,67.964-2.456
			C372.684,163.074,371.643,187.754,358.852,220.063z"/>
	</g>
</g>
<g>
	<g>
		<path d="M444.087,0c-36.793,0-66.727,29.934-66.727,66.727s29.934,66.727,66.727,66.727c36.793,0,66.727-29.934,66.727-66.727
			S480.88,0,444.087,0z M444.087,111.212c-24.529,0-44.485-19.956-44.485-44.485c0-24.529,19.956-44.485,44.485-44.485
			c24.529,0,44.485,19.956,44.485,44.485C488.572,91.256,468.615,111.212,444.087,111.212z"/>
	</g>
</g>
<g>
	<g>
		<path d="M444.087,177.94c-12.264,0-22.242,9.978-22.242,22.242s9.978,22.242,22.242,22.242c12.265,0,22.242-9.978,22.242-22.242
			S456.351,177.94,444.087,177.94z"/>
	</g>
</g>
<g>
	<g>
		<path d="M310.632,22.242c-12.367,0-22.428,10.061-22.428,22.428c0,12.366,10.061,22.427,22.428,22.427
			c12.367,0,22.428-10.061,22.428-22.427C333.06,32.304,322.999,22.242,310.632,22.242z M310.446,44.671
			c0-0.102,0.083-0.186,0.186-0.186c0.102,0,0.186,0.083,0.186,0.186C310.818,44.875,310.446,44.875,310.446,44.671z"/>
	</g>
</g>
</svg>